<svg width="44" height="40" viewBox="0 0 44 40" fill="none" xmlns="http://www.w3.org/2000/svg">
<path d="M40.731 25.366L40.8124 25.3994L42.3195 26.1181C44.5114 27.1633 44.5591 29.1584 42.4625 30.245L42.3195 30.316L25.3839 38.392C23.559 39.2622 20.7303 39.2944 18.831 38.4887L18.6161 38.392L1.68049 30.316C-0.511431 29.2708 -0.559081 27.2757 1.53741 26.1892L1.68035 26.1181L3.18668 25.3994C3.56138 25.2207 4.0171 25.3654 4.20455 25.7228C4.3786 26.0546 4.26015 26.4531 3.94233 26.6515L3.86549 26.6936L2.35902 27.4123C1.27537 27.9291 1.23801 28.4494 2.24692 28.9664L2.35902 29.0218L19.2947 37.0977C20.7014 37.7686 23.0329 37.7965 24.5168 37.1816L24.7054 37.0977L41.641 29.0218C42.7246 28.505 42.762 27.9847 41.7531 27.4677L41.641 27.4123L40.1339 26.6936C39.7592 26.5149 39.6073 26.0803 39.7946 25.7229C39.9686 25.3911 40.374 25.2425 40.731 25.366ZM40.731 16.6838L40.8124 16.7172L42.3195 17.4359C44.5114 18.4811 44.5591 20.4763 42.4625 21.5628L42.3195 21.6339L25.3839 29.7098C23.559 30.58 20.7303 30.6123 18.831 29.8065L18.6161 29.7098L1.68049 21.6339C-0.511431 20.5886 -0.559081 18.5935 1.53741 17.507L1.68035 17.436L3.18668 16.7173C3.56138 16.5385 4.0171 16.6833 4.20455 17.0406C4.3786 17.3725 4.26015 17.7709 3.94233 17.9693L3.86549 18.0114L2.35902 18.7302C1.27537 19.2469 1.23801 19.7672 2.24692 20.2842L2.35902 20.3396L19.2947 28.4156C20.7014 29.0864 23.0329 29.1144 24.5168 28.4994L24.7054 28.4156L41.641 20.3396C42.7246 19.8229 42.762 19.3025 41.7531 18.7855L41.641 18.7302L40.1339 18.0115C39.7592 17.8328 39.6073 17.3982 39.7946 17.0408C39.9686 16.7089 40.374 16.5603 40.731 16.6838ZM25.3839 0.677763L42.3195 8.75372C44.5602 9.8222 44.5602 11.8832 42.3195 12.9517L25.3839 21.0277C23.4888 21.9313 20.5112 21.9313 18.6161 21.0277L1.68049 12.9517C-0.56014 11.8832 -0.56014 9.8222 1.68049 8.75372L18.6161 0.677763C20.5112 -0.225921 23.4888 -0.225921 25.3839 0.677763ZM19.2947 1.97202L2.35902 10.048C1.23667 10.5832 1.23667 11.1222 2.35902 11.6574L19.2947 19.7334C20.7626 20.4334 23.2374 20.4334 24.7054 19.7334L41.641 11.6574C42.7633 11.1222 42.7633 10.5832 41.641 10.048L24.7054 1.97202C23.2374 1.27203 20.7626 1.27203 19.2947 1.97202ZM18.6161 7.91291C20.5112 7.00922 23.4888 7.00922 25.3839 7.91291L33.8517 11.9509C34.2264 12.1296 34.3783 12.5642 34.191 12.9216C34.0036 13.279 33.5479 13.4238 33.1732 13.2451L24.7054 9.20717C23.2374 8.50717 20.7626 8.50717 19.2947 9.20717L10.1142 13.585C9.73949 13.7637 9.28381 13.6188 9.09644 13.2614C8.90907 12.904 9.06096 12.4694 9.4357 12.2907L18.6161 7.91291Z" fill="#B80000"/>
</svg>

