<svg width="124" height="124" viewBox="0 0 124 124" fill="none" xmlns="http://www.w3.org/2000/svg">
<path d="M96.3333 1H27C12.6406 1 1 12.6877 1 27.1053V96.7193C1 111.137 12.6406 122.825 27 122.825H96.3333C110.693 122.825 122.333 111.137 122.333 96.7193V27.1053C122.333 12.6877 110.693 1 96.3333 1Z" stroke="#B4B4B4" stroke-width="2"/>
<path d="M61.8296 22.4531L67.6953 31.4863C68.8951 33.3341 70.9433 34.4482 73.1402 34.4482H94.1666C99.5514 34.4482 103.917 38.8311 103.917 44.2377V94.5438C103.917 99.9504 99.5514 104.333 94.1666 104.333H29.1666C23.7818 104.333 19.4166 99.9504 19.4166 94.5438V29.2807C19.4166 23.8741 23.7818 19.4912 29.1666 19.4912H56.3846C58.5815 19.4912 60.6297 20.6054 61.8296 22.4531Z" stroke="#D1D292" stroke-width="2"/>
<path d="M61.6667 91.2805C74.8295 91.2805 85.5001 80.5668 85.5001 67.3507C85.5001 54.1346 74.8295 43.4209 61.6667 43.4209C48.5039 43.4209 37.8334 54.1346 37.8334 67.3507C37.8334 80.5668 48.5039 91.2805 61.6667 91.2805Z" fill="#096634" stroke="white"/>
<path d="M61.6667 62.2656C64.4638 62.2656 66.7313 64.5423 66.7313 67.3507C66.7313 70.1591 64.4638 72.4358 61.6667 72.4358C58.8696 72.4358 56.6021 70.1591 56.6021 67.3507C56.6021 64.5423 58.8696 62.2656 61.6667 62.2656ZM50.9763 62.7555C51.1916 62.8803 51.3704 63.0598 51.4947 63.2759L55.3634 70.0038C55.7544 70.6839 55.5224 71.5535 54.845 71.9462C54.6297 72.071 54.3855 72.1367 54.1369 72.1367H46.3996C45.6174 72.1367 44.9834 71.5001 44.9834 70.7148C44.9834 70.4652 45.0488 70.22 45.1731 70.0038L49.0418 63.2759C49.4329 62.5958 50.299 62.3628 50.9763 62.7555ZM76.5625 62.5647C77.5497 62.5647 78.35 63.3683 78.35 64.3595V70.3419C78.35 71.3331 77.5497 72.1367 76.5625 72.1367H70.6042C69.617 72.1367 68.8167 71.3331 68.8167 70.3419V64.3595C68.8167 63.3683 69.617 62.5647 70.6042 62.5647H76.5625Z" fill="#096634"/>
</svg>
