<svg width="124" height="124" viewBox="0 0 124 124" fill="none" xmlns="http://www.w3.org/2000/svg">
<path d="M66.0874 95.0877H40.8779C37.288 95.0877 34.3779 92.1657 34.3779 88.5614V31.9999C34.3779 28.3956 37.288 25.4736 40.8779 25.4736H79.8033C83.3869 25.4736 86.2944 28.3858 86.3033 31.9839L86.3779 62.389" stroke="#096634" stroke-width="2" stroke-linecap="round"/>
<path d="M49.5446 60.2807V58.1053C49.5446 55.7023 51.4847 53.7544 53.8779 53.7544H66.8779C69.2711 53.7544 71.2112 55.7023 71.2112 58.1053V60.2807" stroke="#B80000" stroke-width="2" stroke-linecap="round" stroke-linejoin="round"/>
<path d="M60.3779 47.2283C63.3694 47.2283 65.7946 44.7933 65.7946 41.7897C65.7946 38.786 63.3694 36.3511 60.3779 36.3511C57.3864 36.3511 54.9612 38.786 54.9612 41.7897C54.9612 44.7933 57.3864 47.2283 60.3779 47.2283Z" stroke="#B80000" stroke-width="2"/>
<path d="M45.2112 83.1229H58.2112M45.2112 76.5966H60.3779H45.2112ZM45.2112 70.0703H66.8779H45.2112Z" stroke="#096634" stroke-width="2" stroke-linecap="round" stroke-linejoin="round"/>
<path d="M88.0587 70.7817C88.6087 70.7817 89.0714 71.1955 89.1348 71.7441L89.3824 73.8872C90.6622 74.194 91.8646 74.7012 92.9547 75.374L94.6396 74.0337C95.0707 73.6907 95.6894 73.7266 96.0783 74.1171L98.2679 76.3155C98.6568 76.706 98.6926 77.3271 98.3511 77.76L97.0166 79.4529C97.6864 80.5471 98.1914 81.7539 98.4968 83.0385L100.631 83.2872C101.178 83.3508 101.59 83.8154 101.59 84.3677V87.4768C101.59 88.029 101.178 88.4936 100.631 88.5572L98.4968 88.8059C98.1913 90.0909 97.6861 91.2981 97.016 92.3926L98.3509 94.0843C98.6925 94.5172 98.6568 95.1384 98.2678 95.5289L96.0782 97.7273C95.6893 98.1178 95.0707 98.1537 94.6396 97.8109L92.9536 96.471C91.8687 97.1404 90.6727 97.6459 89.3998 97.953L89.1393 100.106C89.0732 100.652 88.6116 101.063 88.0638 101.063H84.9567C84.409 101.063 83.9474 100.652 83.8813 100.106L83.6198 97.9527C82.3529 97.6469 81.1621 97.1446 80.0813 96.4797L78.3802 97.8181C77.949 98.1573 77.3334 98.1199 76.9461 97.731L74.749 95.525C74.3617 95.1362 74.3244 94.5182 74.6622 94.0852L75.9947 92.3762C75.3326 91.291 74.8325 90.0954 74.5281 88.8233L72.3837 88.5617C71.8399 88.4954 71.431 88.032 71.431 87.4819V84.3622C71.431 83.8123 71.8398 83.3489 72.3835 83.2825L74.5283 83.02C74.8328 81.7483 75.3328 80.553 75.9947 79.4681L74.6624 77.7591C74.3246 77.3262 74.3618 76.7081 74.7491 76.3192L76.9462 74.1132C77.3335 73.7244 77.949 73.6869 78.3802 74.026L80.0823 75.364C81.1681 74.6961 82.3648 74.1924 83.6383 73.8872L83.886 71.7442C83.9493 71.1956 84.4121 70.7817 84.9622 70.7817H88.0587V70.7817Z" stroke="#D1D292" stroke-width="2"/>
<path d="M86.5104 92.2929C90.0147 92.2929 92.8555 89.4406 92.8555 85.9221C92.8555 82.4036 90.0147 79.5513 86.5104 79.5513C83.006 79.5513 80.1652 82.4036 80.1652 85.9221C80.1652 89.4406 83.006 92.2929 86.5104 92.2929Z" stroke="#D1D292" stroke-width="2"/>
<path d="M96.3333 1H27C12.6406 1 1 12.6877 1 27.1053V96.7193C1 111.137 12.6406 122.825 27 122.825H96.3333C110.693 122.825 122.333 111.137 122.333 96.7193V27.1053C122.333 12.6877 110.693 1 96.3333 1Z" stroke="#B4B4B4" stroke-width="2"/>
</svg>
