<svg width="312" height="183" viewBox="0 0 312 183" fill="none" xmlns="http://www.w3.org/2000/svg">
<path d="M10.5192 3C4.70959 3 0 7.71225 0 13.5251V45.2934C0 51.1063 4.70959 55.8185 10.5192 55.8185L48.0831 55.8164L64.2384 67.1138C64.5905 67.36 64.9974 67.5161 65.4236 67.5685L65.7447 67.5882C67.0934 67.5882 68.2049 66.5725 68.3568 65.2638L68.3745 64.957V13.5251C68.3745 7.71225 63.6649 3 57.8554 3H10.5192Z" fill="white"/>
<path d="M40.8828 22.5535H13.9862C12.7978 22.5535 11.8345 23.5174 11.8345 24.7065C11.8345 25.8955 12.7978 26.8594 13.9862 26.8594H40.8828C42.0711 26.8594 43.0345 25.8955 43.0345 24.7065C43.0345 23.5174 42.0711 22.5535 40.8828 22.5535ZM52.7172 11.7888H13.9862C12.7978 11.7888 11.8345 12.7527 11.8345 13.9418C11.8345 15.1308 12.7978 16.0947 13.9862 16.0947H52.7172C53.9056 16.0947 54.869 15.1308 54.869 13.9418C54.869 12.7527 53.9056 11.7888 52.7172 11.7888Z" fill="black"/>
<path d="M301.481 74.2766C307.29 74.2766 312 78.9889 312 84.8017V116.57C312 122.383 307.29 127.095 301.481 127.095L263.917 127.093L247.762 138.39C247.41 138.637 247.003 138.793 246.576 138.845L246.255 138.865C244.907 138.865 243.795 137.849 243.643 136.54L243.625 136.234V84.8017C243.625 78.9889 248.335 74.2766 254.145 74.2766H301.481Z" fill="black"/>
<path d="M278.5 115.48C286.603 115.48 293.173 108.907 293.173 100.799C293.173 92.6907 286.603 86.1177 278.5 86.1177C270.396 86.1177 263.827 92.6907 263.827 100.799C263.827 108.907 270.396 115.48 278.5 115.48Z" stroke="white" stroke-width="2"/>
<path d="M272.666 103.022C272.666 106.246 275.278 108.859 278.5 108.859C281.722 108.859 284.334 106.246 284.334 103.022" stroke="white" stroke-width="2" stroke-linecap="round"/>
<path d="M284.334 98.6438C285.139 98.6438 285.792 97.9904 285.792 97.1844C285.792 96.3785 285.139 95.7251 284.334 95.7251C283.528 95.7251 282.875 96.3785 282.875 97.1844C282.875 97.9904 283.528 98.6438 284.334 98.6438Z" fill="white"/>
<path d="M272.666 98.6438C273.471 98.6438 274.124 97.9904 274.124 97.1844C274.124 96.3785 273.471 95.7251 272.666 95.7251C271.86 95.7251 271.207 96.3785 271.207 97.1844C271.207 97.9904 271.86 98.6438 272.666 98.6438Z" fill="white"/>
<path d="M165.723 111.962L220.518 140.061C225.959 142.851 225.959 147.374 220.518 150.164L165.723 178.263C160.282 181.052 151.461 181.052 146.021 178.263L91.2252 150.164C85.7847 147.374 85.7847 142.851 91.2252 140.061L146.021 111.962C151.461 109.173 160.282 109.173 165.723 111.962V111.962Z" stroke="#096634" stroke-width="3"/>
<path d="M165.723 73.5965L220.518 101.695C225.959 104.485 225.959 109.008 220.518 111.798L165.723 139.897C160.282 142.686 151.461 142.686 146.021 139.897L91.2252 111.798C85.7847 109.008 85.7847 104.485 91.2252 101.695L146.021 73.5965C151.461 70.8067 160.282 70.8067 165.723 73.5965Z" stroke="#B80000" stroke-width="3" stroke-linecap="round" stroke-linejoin="round"/>
<path d="M165.723 35.2306L220.518 63.3292C225.959 66.119 225.959 70.6422 220.518 73.4321L165.723 101.531C160.282 104.321 151.461 104.321 146.021 101.531L91.2252 73.4321C85.7847 70.6422 85.7847 66.119 91.2252 63.3292L146.021 35.2306C151.461 32.4407 160.282 32.4407 165.723 35.2306V35.2306Z" stroke="#D1D292" stroke-width="3"/>
</svg>
