<svg width="124" height="124" viewBox="0 0 124 124" fill="none" xmlns="http://www.w3.org/2000/svg">
<path d="M96.3333 1H27C12.6406 1 1 12.6877 1 27.1053V96.7193C1 111.137 12.6406 122.825 27 122.825H96.3333C110.693 122.825 122.333 111.137 122.333 96.7193V27.1053C122.333 12.6877 110.693 1 96.3333 1Z" stroke="#B4B4B4" stroke-width="2"/>
<path d="M19.9583 105.222H24.548C27.2573 105.222 29.6824 103.535 30.6339 100.988L39.4728 77.3289C40.3133 75.079 42.8112 73.9393 45.052 74.7832C45.9524 75.1224 46.7149 75.7526 47.2194 76.5747L55.9072 90.7327C57.7902 93.8014 61.7944 94.7564 64.8507 92.8657C65.8494 92.2479 66.663 91.3703 67.2051 90.3259L71.6419 81.7795C73.662 77.8882 78.4414 76.378 82.3169 78.4062C83.6407 79.099 84.7422 80.1536 85.4945 81.4482L89.8907 89.0144C91.3981 91.6088 94.7149 92.485 97.2989 90.9714C97.3547 90.9388 97.4099 90.9051 97.4645 90.8704L103.375 87.1175" stroke="#B80000" stroke-width="2" stroke-linecap="round" stroke-linejoin="round"/>
<path d="M21.9078 32.0938C21.4729 33.6188 21.2399 35.2294 21.2399 36.8947C21.2399 46.5064 29.0003 54.2982 38.5733 54.2982C48.1462 54.2982 55.9066 46.5064 55.9066 36.8947C55.9066 27.283 48.1462 19.4912 38.5733 19.4912C36.7697 19.4912 35.0305 19.7678 33.3954 20.281" stroke="#096634" stroke-width="2" stroke-linecap="round" stroke-linejoin="round"/>
<path d="M30.8065 45.2846V44.7615C30.8065 42.3586 32.7466 40.4106 35.1398 40.4106H42.0068C44.4 40.4106 46.3401 42.3586 46.3401 44.7615V45.2846" stroke="#096634" stroke-width="2" stroke-linecap="round" stroke-linejoin="round"/>
<path d="M38.5733 36.5115C41.2542 36.5115 43.4275 34.3294 43.4275 31.6376C43.4275 28.9458 41.2542 26.7637 38.5733 26.7637C35.8923 26.7637 33.719 28.9458 33.719 31.6376C33.719 34.3294 35.8923 36.5115 38.5733 36.5115Z" stroke="#096634" stroke-width="2"/>
<path d="M24.8333 28.1928C27.5257 28.1928 29.7083 26.0013 29.7083 23.2981C29.7083 20.5948 27.5257 18.4033 24.8333 18.4033C22.1409 18.4033 19.9583 20.5948 19.9583 23.2981C19.9583 26.0013 22.1409 28.1928 24.8333 28.1928Z" fill="#096634"/>
<path d="M73.8584 31.274H75.9055V19.778H73.8663L70.875 21.8812V23.857L73.7235 21.8494H73.8584V31.274ZM79.053 22.9271L79.0476 23.1718H80.9678V23.14C80.9678 21.9689 81.7771 21.1802 82.9752 21.1802C84.1019 21.1802 84.9271 21.9131 84.9271 22.9249C84.9271 23.6668 84.603 24.2294 83.3569 25.5344L79.1587 29.8479V31.274H87.1091V29.5292H81.9675V29.3938L84.3638 26.9799C86.3077 25.052 86.9346 24.0322 86.9346 22.7974C86.9346 20.8774 85.3 19.4912 83.0387 19.4912C80.7683 19.4912 79.1579 20.8908 79.053 22.9271ZM90.7035 31.4413C91.4573 31.4413 91.973 30.8995 91.973 30.1825C91.973 29.4575 91.4573 28.9238 90.7035 28.9238C89.9576 28.9238 89.434 29.4575 89.434 30.1825C89.434 30.8995 89.9576 31.4413 90.7035 31.4413ZM98.2017 31.5608C95.8292 31.5608 94.1868 30.1108 94.0915 28.0873H96.0117C96.1387 29.1468 97.0353 29.8479 98.2175 29.8479C99.5585 29.8479 100.471 28.9397 100.471 27.5694C100.471 26.1912 99.5505 25.2591 98.2334 25.2591C97.2892 25.2591 96.5513 25.6813 96.1307 26.3904H94.274L94.8691 19.778H101.764V21.5148H96.456L96.1783 24.7413H96.3132C96.821 24.0561 97.6304 23.6658 98.7333 23.6658C100.907 23.6658 102.447 25.2671 102.447 27.5216C102.447 29.9196 100.741 31.5608 98.2017 31.5608ZM93.7604 48.9099H95.7599C95.8869 49.9377 96.9025 50.5989 98.3545 50.5989C99.7034 50.5989 100.679 49.9058 100.679 48.9418C100.679 48.1133 100.053 47.6273 98.5846 47.2847L97.1009 46.9422C95.022 46.4721 94.0461 45.4365 94.0461 43.7236C94.0461 41.6364 95.7441 40.2501 98.3069 40.2501C100.711 40.2501 102.449 41.6364 102.544 43.6121H100.584C100.441 42.6003 99.5526 41.963 98.299 41.963C96.9818 41.963 96.109 42.6003 96.109 43.5802C96.109 44.353 96.6883 44.8071 98.1086 45.1337L99.4257 45.4365C101.751 45.9623 102.726 46.9342 102.726 48.6869C102.726 50.9255 101.005 52.3197 98.2276 52.3197C95.6012 52.3197 93.8636 50.9972 93.7604 48.9099ZM75.6803 40.5369V52.0329H77.7274V48.2646H80.2109C82.5278 48.2646 84.1465 46.7032 84.1465 44.4247C84.1465 42.1064 82.5834 40.5369 80.2982 40.5369H75.6803ZM77.7274 42.2578H79.7587C81.2345 42.2578 82.0676 43.0146 82.0676 44.4247C82.0676 45.795 81.2107 46.5598 79.7507 46.5598H77.7274V42.2578ZM87.7107 53.0953H85.9254L89.2817 39.1934H91.0988L87.7107 53.0953Z" fill="#D1D292"/>
</svg>
